**ABCDEFGHIJKLMNOPQRSTUVWXYZabcdefghijklmnopqrstuvwxyz**************************
**PARASOLID !"#$%&'()*+,-./:;<=>?@[\]^_`{|}~0123456789**************************
**PART1;
MC=AMD64;
MC_MODEL=Intel64 Family 6 Model 58 Stepping 9, GenuineIntel;
MC_ID=unknown;
OS=Windows_NT;
OS_RELEASE=unknown;
FRU=Parasolid Version 24.0, build 216,  1-13-2012;
APPL=SolidWorks 2012-2012159;
SITE=;
USER=unknown;
FORMAT=text;
GUISE=transmit;
KEY=Lower Leg 3.0;
FILE=Lower Leg 3.0.x_t;
DATE=Wed Feb 18 13:01:57 2015;
**PART2;
SCH=SCH_2400216_20000;
USFLD_SIZE=0;
**PART3;
**END_OF_HEADER*****************************************************************
T51 : TRANSMIT FILE created by modeller version 240021623 SCH_2400216_20000_1300
6186 0 12 27 CCCCCCCCCCCCCCCCCCCCCCCA16 index_map_offset0 0 1 dA9 index_map82 0
 A17 node_id_index_map82 0 A20 schema_embedding_map82 0 Z1 2117 0 2 0 0 0 0 1e3
 1e-8 0 3 0 1 0 1 1 4 5 6 7 8 9 10 0 0 0 0 70 11 CI9 list_type0 0 1 uI10 notrans
mit0 0 1 lCCCDCCDI12 finger_index0 0 1 dI12 finger_block1012 0 CZ2 0 4 T1 0 0 2
 20 1 11 11 13 255 4 246 0 1 0 12 0 0 13 0 51 255 5 1508 0 14 15 0 0 +.01 -12207
31334946642e-33 -.005 1220731334946642e-31 1 0 .005 -1 1220731334946642e-31 0 31
 255 6 1519 0 16 17 0 0 +.01 -.22 -.005 0 1 0 0 0 1 .005 29 255 7 1655 0 10 18 0
 .015 -.015 -.005 19 255 8 77 0 1 13 0 19 V16 255 9 1218 0 ?20 0 21 22 0 0 1 18
 255 10 1653 0 23 0 24 7 ?1 17 255 23 0 25 26 27 10 28 29 0 30 +18 24 1214 0 31
 10 32 18 ?1 17 31 0 33 20 34 24 35 21 0 36 +18 32 1210 0 34 24 37 38 ?1 29 18 1
216 0 24 38 7 -.015 -.22 -.005 29 38 1212 0 32 39 18 -.015 -.22 .005 29 39 1189
 0 37 40 38 -.015 -.27 -.005 18 37 1187 0 20 32 41 39 ?1 29 40 1186 0 41 42 39 -
.015 -.27 .005 18 41 1184 0 43 37 44 40 ?1 29 42 1171 0 44 45 40 .01 -.22 -.01 1
8 44 1169 0 46 41 47 42 ?1 29 45 1168 0 47 48 42 -.01 -.22 -.01 18 47 1166 0 49
 44 50 45 ?1 29 48 1165 0 50 51 45 .01 -.27 -.01 18 50 1163 0 52 47 53 48 ?1 29
 51 1162 0 53 54 48 -.01 -.27 -.01 18 53 1160 0 55 50 56 51 ?1 29 54 1149 0 56 5
7 51 .01 610367138016632e-33 .01 18 56 1147 0 58 53 59 54 ?1 29 57 1145 0 59 60
 54 .01 -.18 .01 18 59 1143 0 61 56 62 57 ?1 29 60 1141 0 62 63 57 -.01 -.18 .01
 18 62 1139 0 64 59 65 60 ?1 29 63 1138 0 65 66 60 -.01 596166207300948e-39 .01
 18 65 1136 0 67 62 68 63 ?1 29 66 1119 0 68 69 63 -.015 -.18 -.005 18 68 1117 0
 70 65 71 66 ?1 29 69 1115 0 71 72 66 -.015 -.18 .005 18 71 1113 0 73 68 74 69 ?
1 29 72 1090 0 74 75 69 -.02 -.215 .005 18 74 1088 0 76 71 77 72 ?1 29 75 1087 0
 77 78 72 -.02 -.215 -.005 18 77 1085 0 79 74 80 75 ?1 29 78 1074 0 80 81 75 .01
 -.22 .01 18 80 1072 0 82 77 83 78 ?1 29 81 1070 0 83 84 78 -.01 -.22 .01 18 83
 1068 0 85 80 86 81 ?1 29 84 1067 0 86 87 81 .01 -.27 .01 18 86 1065 0 88 83 89
 84 ?1 29 87 1064 0 89 90 84 -.01 -.27 .01 18 89 1062 0 91 86 92 87 ?1 29 90 104
5 0 92 93 87 -.02 -.185 .005 18 92 1043 0 94 89 95 90 ?1 29 93 1042 0 95 96 90 -
.02 -.185 -.005 18 95 1040 0 97 92 98 93 ?1 29 96 1029 0 98 99 93 .01 -.18 -.01
 18 98 1027 0 100 95 101 96 ?1 29 99 1025 0 101 102 96 .01 610367138016632e-33 -
.01 18 101 1023 0 103 98 104 99 ?1 29 102 1021 0 104 105 99 -.01 596166207300948
e-39 -.01 18 104 1019 0 106 101 107 102 ?1 29 105 1018 0 107 108 102 -.01 -.18 -
.01 18 107 1016 0 109 104 110 105 ?1 29 108 1003 0 110 111 105 .01 -.215 .015 18
 110 1001 0 112 107 113 108 ?1 29 111 1000 0 113 114 108 -.01 -.215 .015 18 113
 998 0 115 110 116 111 ?1 29 114 997 0 116 117 111 .01 -.185 .015 18 116 995 0 1
18 113 119 114 ?1 29 117 994 0 119 120 114 -.01 -.185 .015 18 119 992 0 121 116
 122 117 ?1 29 120 982 0 122 123 117 .015 -.18 -.005 18 122 980 0 124 119 125 12
0 ?1 29 123 970 0 125 126 120 .015 -.18 .005 18 125 968 0 127 122 128 123 ?1 29
 126 958 0 128 129 123 .015 -.22 -.005 18 128 956 0 130 125 131 126 ?1 29 129 94
6 0 131 132 126 .015 -.22 .005 18 131 944 0 133 128 134 129 ?1 29 132 937 0 134
 135 129 .015 -.27 -.005 18 134 935 0 136 131 137 132 ?1 29 135 934 0 137 138 13
2 .015 -.27 .005 18 137 932 0 139 134 140 135 ?1 29 138 931 0 140 141 135 .015 -
.19 .015 18 140 929 0 142 137 143 138 ?1 29 141 928 0 143 144 138 .015 -.21 .015
 18 143 926 0 145 140 146 141 ?1 29 144 913 0 146 147 141 .01 -.215 -.015 18 146
 911 0 148 143 149 144 ?1 29 147 910 0 149 150 144 -.01 -.215 -.015 18 149 908 0
 151 146 152 147 ?1 29 150 907 0 152 153 147 .015 -.19 -.015 18 152 905 0 154 14
9 155 150 ?1 29 153 904 0 155 156 150 .015 -.21 -.015 18 155 902 0 157 152 158 1
53 ?1 29 156 901 0 158 159 153 .01 -.185 -.015 18 158 899 0 160 155 161 156 ?1 2
9 159 898 0 161 162 156 -.01 -.185 -.015 18 161 896 0 163 158 164 159 ?1 29 162
 706 0 164 165 159 -.02 -.215 .0075 18 164 704 0 166 161 167 162 ?1 29 165 620 0
 168 169 162 -.035 -.215 -.015 18 168 472 0 170 171 172 165 ?1 29 169 621 0 172
 173 165 -.035 -.185 -.015 18 172 468 0 174 168 175 169 ?1 29 173 624 0 167 176
 169 -.035 -.215 .015 18 167 478 0 177 164 171 173 ?1 29 176 625 0 171 178 173 -
.035 -.185 .015 18 171 475 0 179 167 168 176 ?1 29 178 847 0 180 181 176 -.02 -.
185 .0075 18 180 792 0 182 183 184 178 ?1 29 181 849 0 184 185 178 -.035 -.215 .
0075 18 184 789 0 186 180 187 181 ?1 29 185 850 0 187 188 181 -.035 -.185 .0075
 18 187 785 0 189 184 190 185 ?1 29 188 851 0 175 191 185 -.02 -.185 -.0075 18 1
75 787 0 192 172 193 188 ?1 29 191 852 0 193 194 188 -.02 -.215 -.0075 18 193 79
0 0 195 175 196 191 ?1 29 194 853 0 196 197 191 -.035 -.215 -.0075 18 196 791 0
 198 193 183 194 ?1 29 197 854 0 183 199 194 -.035 -.185 -.0075 18 183 788 0 200
 196 180 197 ?1 29 199 1783 0 201 202 197 .015 -.015 .005 18 201 1722 0 203 204
 205 199 ?1 29 202 1784 0 205 206 199 -.015 -.015 .005 18 205 1724 0 207 201 208
 202 ?1 29 206 1785 0 208 209 202 -.015 0 .005 18 208 1726 0 210 205 211 206 ?1
 29 209 1786 0 211 212 206 .015 0 .005 18 211 1720 0 213 208 0 209 ?1 29 212 178
8 0 190 214 209 -.015 -.015 -.005 18 190 1721 0 27 187 215 212 ?1 29 214 1789 0
 215 216 212 -.015 0 -.005 18 215 1723 0 217 190 204 214 ?1 29 216 1790 0 204 0
 214 .015 0 -.005 18 204 1725 0 26 215 201 216 ?1 17 26 0 25 217 23 204 218 219
 0 220 +15 255 25 1755 0 26 221 0 17 217 0 25 27 26 215 220 222 0 223 +17 218 0
 224 225 226 10 26 219 0 227 -16 219 1690 0 ?26 29 228 229 0 0 1 17 220 0 230 23
1 232 204 217 222 0 226 -15 230 1296 0 232 233 0 17 231 0 230 234 220 101 226 23
5 0 236 -17 232 0 230 220 234 215 237 238 0 0 +16 222 1131 0 ?217 239 240 241 0
 0 1 17 226 0 224 218 236 204 231 235 0 0 +15 224 1300 0 226 242 0 17 236 0 224
 226 243 101 100 244 0 0 -16 235 1336 0 ?226 245 246 247 0 0 1 16 245 1333 0 ?24
8 249 235 250 0 0 1 16 246 1339 0 ?109 235 251 252 0 0 1 31 247 1393 0 235 252 2
50 0 +.01 610367138016632e-33 -.005 -1220731334946642e-31 -1 0 1 -12207313349466
42e-31 0 .005 31 252 1394 0 246 253 247 0 --.01 -.18 -.015 1 0 0 0 0 -1 .005 31
 250 1392 0 245 247 254 0 +-.02 -.18 -.005 0 0 1 1 0 0 .005 31 254 1391 0 249 25
0 255 0 --.01 -.18 -.005 0 1 0 0 0 1 .005 16 249 1332 0 ?256 238 245 254 0 0 1 3
1 255 1390 0 238 254 257 0 +-.01 596166207300948e-39 -.005 596166207300948e-37 1
 0 -1 596166207300948e-37 0 .005 16 238 1330 0 ?232 258 249 255 0 0 1 31 257 138
9 0 258 255 259 0 --.02 -.18 .005 0 0 -1 -1 0 0 .005 16 258 1327 0 ?260 261 238
 257 0 0 1 31 259 1388 0 261 257 262 0 +-.01 -.18 .015 1 0 0 0 0 -1 .005 16 261
 1322 0 ?263 264 258 259 0 0 1 31 262 1387 0 264 259 265 0 --.01 -.18 .005 0 1 0
 0 0 1 .005 16 264 1321 0 ?266 267 261 262 0 0 1 31 265 1386 0 267 262 268 0 -.0
1 -.18 .015 -1 1220731334946642e-31 0 -1220731334946642e-31 -1 0 .005 16 267 131
9 0 ?269 270 264 265 0 0 1 31 268 1385 0 270 265 271 0 +-.01 596166207300948e-39
 .005 -596166207300948e-37 -1 0 1 -596166207300948e-37 0 .005 16 270 1316 0 ?272
 273 267 268 0 0 1 31 271 1383 0 273 268 274 0 +.01 -.18 .005 0 -1 0 0 0 -1 .005
 16 273 1312 0 ?275 276 270 271 0 0 1 31 274 1382 0 276 271 277 0 +.01 610367138
016632e-33 .005 1220731334946642e-31 1 0 -1 1220731334946642e-31 0 .005 16 276 1
310 0 ?278 279 273 274 0 0 1 31 277 1529 0 280 274 281 0 +.01 -.22 .015 -1 12207
31334946642e-31 0 -1220731334946642e-31 -1 0 .005 16 280 1482 0 ?282 283 284 277
 0 0 1 31 281 1528 0 283 277 285 0 +.01 -.22 .005 0 1 0 0 0 1 .005 16 283 1481 0
 ?133 286 280 281 0 0 1 31 285 1527 0 286 281 287 0 --.01 -.22 .015 1 0 0 0 0 -1
 .005 16 286 1478 0 ?288 289 283 285 0 0 1 31 287 1526 0 289 285 290 0 +-.02 -.2
2 .005 0 0 -1 -1 0 0 .005 16 289 1472 0 ?291 292 286 287 0 0 1 31 290 1525 0 292
 287 293 0 +-.01 -.22 .005 0 1 0 0 0 1 .005 16 292 1471 0 ?294 295 289 290 0 0 1
 31 293 1524 0 295 290 296 0 --.02 -.22 -.005 0 0 1 1 0 0 .005 16 295 1469 0 ?29
7 298 292 293 0 0 1 31 296 1523 0 298 293 299 0 +-.01 -.22 -.015 1 0 0 0 0 -1 .0
05 16 298 1463 0 ?300 301 295 296 0 0 1 31 299 1522 0 301 296 17 0 +-.01 -.22 -.
005 0 1 0 0 0 1 .005 16 301 1462 0 ?302 303 298 299 0 0 1 31 17 1521 0 303 299 6
 0 -.01 -.22 -.015 -1 1220731334946642e-31 0 -1220731334946642e-31 -1 0 .005 16
 303 1460 0 ?304 16 301 17 0 0 1 17 304 0 305 306 307 44 308 303 0 0 +16 16 1453
 0 ?309 310 303 6 0 0 1 17 309 0 311 308 312 44 313 16 0 304 +16 310 1343 0 ?314
 251 16 315 0 0 1 17 314 0 316 317 318 98 319 310 0 0 +16 251 1342 0 ?317 246 31
0 253 0 0 1 31 315 1396 0 310 22 253 0 +.01 -.18 -.015 -1 1220731334946642e-31 0
 -1220731334946642e-31 -1 0 .005 30 255 22 1220 0 9 320 315 0 +-.015 -1419319207
617386e-33 -.005 946212805078259e-31 -1 0 31 253 1395 0 251 315 252 0 +.01 -.18
 -.005 0 -1 0 0 0 -1 .005 30 320 1217 0 21 321 22 0 +-.015 -.22 -.01 0 0 -1 16 2
1 1215 0 ?31 9 322 320 0 0 1 30 321 1213 0 322 323 320 0 --.015 -.215 .005 94621
2805078259e-31 -1 0 16 322 1211 0 ?34 21 324 321 0 0 1 31 323 1207 0 324 325 321
 0 -.01 -.27 -.005 0 1 0 0 0 1 .005 16 324 1205 0 ?136 322 326 323 0 0 1 31 325
 1202 0 326 327 323 0 --.01 -.27 -.005 0 1 0 0 0 1 .005 16 326 1200 0 ?55 324 32
8 325 0 0 1 31 327 1197 0 328 329 325 0 -.01 -.27 .005 0 1 0 0 0 1 .005 16 328 1
195 0 ?88 326 330 327 0 0 1 31 329 1192 0 330 331 327 0 --.01 -.27 .005 0 1 0 0
 0 1 .005 16 330 1190 0 ?43 328 332 329 0 0 1 30 331 1177 0 332 333 329 0 -.01 -
1220731334946642e-33 -.01 1220731334946642e-31 1 0 16 332 1175 0 ?52 330 334 331
 0 0 1 30 333 1174 0 334 335 331 0 --.01 -946212805078258e-33 -.01 9462128050782
59e-31 -1 0 16 334 1173 0 ?49 332 336 333 0 0 1 30 335 1172 0 336 337 333 0 -.01
5 -.22 -.01 -1 0 0 16 336 1170 0 ?46 334 338 335 0 0 1 30 337 1153 0 338 339 335
 0 +.01 610367138016633e-33 .01 1220731334946642e-31 1 0 16 338 1151 0 ?340 336
 341 337 0 0 1 31 339 1150 0 341 342 337 0 +0 0 .01 0 0 1 1 0 0 .01 16 341 1148
 0 ?67 338 343 339 0 0 1 30 342 1146 0 343 344 339 0 -.015 -.18 .01 -1 0 0 16 34
3 1144 0 ?61 341 239 342 0 0 1 30 344 1142 0 239 241 342 0 +-.01 -.185 .01 13127
63711550016e-31 -1 0 16 239 1140 0 ?64 343 222 344 0 0 1 31 241 1133 0 222 345 3
44 0 +0 0 -.005 0 0 1 1 0 0 .015 31 345 1128 0 240 346 241 0 -0 0 .005 0 0 1 1 0
 0 .015 16 240 1126 0 ?213 222 347 345 0 0 1 30 346 1123 0 347 348 345 0 +-.015
 -1969145567325025e-33 -.005 1312763711550016e-31 -1 0 16 347 1121 0 ?27 240 349
 346 349 349 1 30 348 1120 0 350 351 346 0 --.015 -.18 .01 0 0 -1 16 350 1118 0
 ?73 349 352 348 0 0 1 30 351 1116 0 352 353 348 0 --.015 894249310855125e-39 .0
05 1312763711550016e-31 -1 0 16 352 1114 0 ?354 350 355 351 0 0 1 31 353 1101 0
 355 356 351 0 --.01 -.215 .005 0 1 0 0 0 1 .01 16 355 1099 0 ?357 352 358 353 0
 0 1 31 356 1093 0 358 359 353 0 --.01 -.215 -.005 0 1 0 0 0 1 .01 16 358 1091 0
 ?360 355 361 356 0 0 1 30 359 1078 0 361 362 356 0 +.01 -.215 .01 1220731334946
642e-31 1 0 16 361 1076 0 ?82 358 363 359 0 0 1 30 362 1075 0 363 364 359 0 +0 -
.22 .01 -1 0 0 16 363 1073 0 ?85 361 365 362 0 0 1 30 364 1071 0 365 366 362 0 +
-.01 -.27 .01 946212805078259e-31 -1 0 16 365 1069 0 ?91 363 367 364 0 0 1 31 36
6 1056 0 367 368 364 0 +-.01 -.185 -.005 0 1 0 0 0 1 .01 16 367 1054 0 ?369 365
 370 366 0 0 1 31 368 1048 0 370 371 366 0 +-.01 -.185 .005 0 1 0 0 0 1 .01 16 3
70 1046 0 ?372 367 373 368 0 0 1 30 371 1033 0 373 374 368 0 +0 -.18 -.01 -1 0 0
 16 373 1031 0 ?375 370 244 371 0 0 1 30 374 1030 0 244 376 371 0 -.01 -12207313
34946642e-33 -.01 1220731334946642e-31 1 0 16 244 1028 0 ?100 373 377 374 0 0 1
 31 376 1026 0 377 378 374 0 -0 0 -.01 0 0 1 1 0 0 .01 16 377 1024 0 ?103 244 37
9 376 0 0 1 30 378 1022 0 379 380 376 0 --.01 -1312763711550016e-33 -.01 1312763
711550016e-31 -1 0 16 379 1020 0 ?106 377 381 378 0 0 1 31 380 1012 0 381 382 37
8 0 +.01 -.21 .015 0 0 1 1 0 0 .005 16 381 1010 0 ?145 379 383 380 0 0 1 31 382
 1006 0 383 384 380 0 +.01 -.19 .015 0 0 1 1 0 0 .005 16 383 1004 0 ?118 381 385
 382 0 0 1 31 384 986 0 385 386 382 0 -.015 -.18 -.015 -1 1220731334946642e-31 0
 -1220731334946642e-31 -1 0 .01 16 385 984 0 ?154 383 387 384 0 0 1 30 386 983 0
 387 388 384 0 +.015 -1831097002419965e-33 -.005 1220731334946642e-31 1 0 16 387
 981 0 ?227 385 389 386 0 0 1 30 388 974 0 389 390 386 0 -.015 -.185 .005 122073
1334946642e-31 1 0 16 389 972 0 ?203 387 391 388 391 391 1 31 390 971 0 392 393
 388 0 -.015 -.18 .015 -1 1220731334946642e-31 0 -1220731334946642e-31 -1 0 .01
 16 392 969 0 ?394 391 395 390 0 0 1 30 393 962 0 395 396 390 0 +.015 -183109700
2419965e-33 -.005 1220731334946642e-31 1 0 16 395 960 0 ?130 392 397 393 0 0 1 3
1 396 959 0 397 398 393 0 -.015 -.22 -.015 -1 1220731334946642e-31 0 -1220731334
946642e-31 -1 0 .01 16 397 957 0 ?312 395 399 396 0 0 1 31 398 950 0 399 400 396
 0 -.015 -.22 .015 -1 1220731334946642e-31 0 -1220731334946642e-31 -1 0 .01 16 3
99 948 0 ?401 397 402 398 0 0 1 30 400 947 0 402 403 398 0 -.015 -.27 .005 12207
31334946642e-31 1 0 16 402 945 0 ?139 399 404 400 0 0 1 31 403 922 0 404 405 400
 0 -.01 -.19 -.015 0 0 1 1 0 0 .005 16 404 920 0 ?406 402 407 403 0 0 1 31 405 9
16 0 407 408 403 0 -.01 -.21 -.015 0 0 1 1 0 0 .005 16 407 914 0 ?148 404 409 40
5 0 0 1 31 408 694 0 410 411 405 0 +-.035 -.2 -.0075 0 0 1 1 0 0 .005 16 410 772
 0 ?412 413 414 408 0 0 1 31 411 687 0 414 415 408 0 +-.035 -.2 .0075 0 0 1 1 0
 0 .005 16 414 755 0 ?416 410 417 411 0 0 1 30 415 233 0 409 418 411 0 +-.035 -.
185 .01 0 0 -1 16 409 201 0 ?419 407 420 415 420 420 1 30 418 232 0 421 422 415
 0 +-.035 -.215 .01 0 0 -1 16 421 200 0 ?423 420 424 418 424 424 1 30 422 230 0
 425 426 418 0 +-.015 -.27 .01 0 0 -1 16 425 1185 0 ?427 424 428 422 0 0 1 30 42
6 229 0 428 429 422 0 +.015 -.27 .01 0 0 -1 16 428 933 0 ?430 425 431 426 0 0 1
 30 429 180 0 432 433 426 0 +0 -.27 -.01 1 0 0 16 432 1161 0 ?434 435 436 429 0
 0 1 31 433 187 0 436 437 429 0 +0 0 -.01 0 0 1 1 0 0 .005 16 436 164 0 ?438 432
 439 433 0 0 1 30 437 37 0 431 440 433 0 +0 -.27 .01 1 0 0 16 431 1063 0 ?441 42
8 435 437 0 0 1 31 440 7 0 435 442 437 0 +0 0 .01 0 0 1 1 0 0 .005 16 435 6 0 ?4
43 431 432 440 0 0 1 31 442 596 0 444 445 440 0 +-.035 -.2 -.015 0 0 1 1 0 0 .00
5 16 444 458 0 ?446 447 448 442 0 0 1 30 445 597 0 448 449 442 0 +.015 -18310970
02419965e-33 -.015 1220731334946642e-31 1 0 16 448 903 0 ?450 444 451 445 0 0 1
 30 449 598 0 451 452 445 0 +0 -.215 -.015 1 0 0 16 451 416 0 ?453 448 454 449 4
54 454 1 31 452 599 0 455 456 449 0 +-.035 -.2 -.015 0 0 1 1 0 0 .015 16 455 406
 0 ?457 454 458 452 0 0 1 30 456 600 0 458 459 452 0 +0 -.185 -.015 1 0 0 16 458
 454 0 ?460 455 413 456 413 413 1 31 459 601 0 439 461 456 0 +-.035 -.2 .015 0 0
 1 1 0 0 .005 16 439 440 0 ?462 436 463 459 0 0 1 30 461 602 0 463 464 459 0 +.0
15 -1831097002419965e-33 .015 1220731334946642e-31 1 0 16 463 927 0 ?465 439 466
 461 0 0 1 30 464 603 0 466 467 461 0 +0 -.215 .015 1 0 0 16 466 446 0 ?468 463
 469 464 469 469 1 31 467 604 0 470 471 464 0 +-.035 -.2 .015 0 0 1 1 0 0 .015 1
6 470 443 0 ?472 469 473 467 0 0 1 30 471 605 0 473 474 467 0 +0 -.185 .015 1 0
 0 16 473 432 0 ?475 470 447 471 447 447 1 30 474 837 0 476 477 471 0 +-.02 -.21
5 -.0075 0 0 1 16 476 767 0 ?478 479 480 474 481 480 1 30 477 838 0 417 482 474
 0 +-.02 -.185 -.0075 0 0 1 16 417 763 0 ?483 414 484 477 479 484 1 30 482 839 0
 485 486 477 0 +-.02 0 .0075 0 -1 0 16 485 760 0 ?487 488 489 482 0 0 1 30 486 8
40 0 489 490 482 0 +0 -.215 .0075 -1 0 0 16 489 764 0 ?186 485 491 486 0 0 1 31
 490 841 0 491 492 486 0 +-.035 -.2 .0075 0 0 1 1 0 0 .015 16 491 782 0 ?493 489
 279 490 0 0 1 30 492 842 0 279 494 490 0 +0 -.185 .0075 1 0 0 16 279 756 0 ?495
 491 276 492 0 0 1 30 494 843 0 496 497 492 0 +-.02 0 -.0075 0 -1 0 16 496 776 0
 ?195 481 498 494 0 0 1 30 497 844 0 498 499 494 0 +0 -.215 -.0075 -1 0 0 16 498
 779 0 ?500 496 501 497 0 0 1 31 499 845 0 501 502 497 0 +-.035 -.2 -.0075 0 0 1
 1 0 0 .015 16 501 768 0 ?198 498 488 499 0 0 1 30 502 846 0 488 503 499 0 +0 -.
185 -.0075 1 0 0 16 488 773 0 ?504 501 485 502 0 0 1 31 503 1769 0 284 505 502 0
 +0 0 .005 0 0 1 1 0 0 .005 16 284 1689 0 ?506 280 507 503 0 0 1 31 505 1770 0 5
07 508 503 0 +0 0 -.005 0 0 1 1 0 0 .005 16 507 1706 0 ?509 284 510 505 0 0 1 30
 508 1773 0 511 512 505 0 +-.015 -.015 -.005 0 0 1 16 511 1701 0 ?207 510 29 508
 0 0 1 30 512 1774 0 510 513 508 0 +.015 -.015 -.005 0 0 1 16 510 1697 0 ?514 50
7 511 512 0 0 1 30 513 1775 0 228 515 512 0 +-3469446951953615e-33 -.015 .005 1
 -2312964634635745e-31 0 16 228 1716 0 ?516 219 517 513 0 0 1 30 515 1776 0 517
 518 513 0 +-.015 -1734723475976805e-33 .005 1156482317317872e-31 -1 0 16 517 17
13 0 ?519 228 0 515 0 0 1 30 518 1779 0 29 229 515 0 +-3469446951953615e-33 -.01
5 -.005 1 -2312964634635745e-31 0 16 29 1694 0 ?23 511 219 518 0 0 1 30 229 1782
 0 219 0 518 0 +.015 0 -.005 0 1 0 17 519 0 520 521 272 205 210 517 0 354 +15 52
0 1284 0 272 522 0 17 521 0 520 523 519 71 354 352 0 266 -17 272 0 520 519 524 2
08 525 270 0 0 +17 210 0 526 213 527 208 519 517 0 528 -17 354 0 529 530 73 205
 521 352 0 0 +15 529 220 0 354 531 0 17 530 0 529 70 354 190 207 511 0 532 -17 7
3 0 529 354 70 71 533 350 0 521 +17 70 0 529 73 530 68 532 349 0 533 +17 533 0 5
34 535 260 68 73 350 0 536 -15 534 1294 0 260 537 0 17 535 0 534 538 533 95 248
 245 0 369 -17 260 0 534 533 538 71 539 258 0 0 +17 536 0 540 532 541 68 256 249
 0 248 -15 540 1292 0 536 542 0 17 532 0 540 223 536 190 70 349 0 0 -17 541 0 54
0 536 237 107 106 379 0 375 -17 256 0 543 544 248 107 536 249 0 541 +17 248 0 54
3 256 369 68 535 245 0 0 +15 543 1298 0 248 545 0 17 369 0 543 248 544 95 163 36
7 0 0 +17 544 0 543 369 256 161 109 246 0 546 -17 163 0 547 548 483 161 369 367
 0 460 -15 547 1055 0 163 549 0 17 548 0 547 550 163 172 460 458 0 0 -17 483 0 5
47 163 504 95 551 417 0 535 +17 460 0 552 160 553 161 548 458 0 544 +15 552 571
 0 160 554 555 17 160 0 552 406 460 158 546 413 0 319 +17 553 0 552 460 556 172
 457 455 0 548 -17 556 0 552 553 151 168 453 451 0 0 -17 457 0 557 558 174 168 5
53 455 0 556 +15 557 733 0 559 560 0 17 558 0 557 559 457 196 170 424 0 0 -17 17
4 0 557 457 559 172 550 420 0 553 +17 559 0 557 174 558 183 198 501 0 550 -17 55
0 0 547 504 548 183 174 420 0 0 -16 420 724 0 ?174 409 421 415 409 409 1 17 504
 0 547 483 550 175 200 488 0 0 +17 200 0 561 198 192 183 504 488 0 559 -15 561 8
21 0 200 562 0 17 198 0 561 563 200 196 559 501 0 500 +17 192 0 561 200 563 175
 195 496 0 551 -17 563 0 561 192 198 193 500 498 0 564 -17 195 0 565 478 551 193
 192 496 0 563 +17 551 0 565 195 97 175 483 417 0 504 -15 565 808 0 566 567 0 17
 97 0 565 551 568 95 538 484 0 483 -17 568 0 565 97 566 92 182 479 0 539 -17 538
 0 534 260 535 92 97 484 0 0 +16 484 1041 0 ?538 417 479 477 417 479 1 16 479 10
44 0 ?182 484 476 477 484 417 1 17 182 0 569 570 94 180 568 479 0 566 +15 569 10
47 0 94 571 0 17 570 0 569 179 182 187 495 279 0 419 -17 94 0 569 182 475 92 372
 370 0 568 -17 566 0 565 568 166 180 487 485 0 495 -17 166 0 565 566 572 164 76
 481 0 487 +17 487 0 573 186 495 164 566 485 0 574 +17 495 0 573 487 189 180 570
 279 0 0 +15 573 826 0 495 575 0 17 189 0 573 495 186 187 493 491 0 570 -17 186
 0 573 189 487 184 574 489 0 493 +17 493 0 576 177 419 184 189 491 0 423 +15 576
 216 0 419 577 0 17 177 0 576 578 493 167 423 421 0 472 -17 419 0 576 493 578 18
7 179 409 0 0 +17 423 0 579 574 580 184 177 421 0 0 +15 579 1100 0 115 581 0 17
 574 0 579 76 423 164 186 489 0 0 -17 580 0 579 423 115 167 468 466 0 0 -17 115
 0 579 580 76 113 357 355 0 468 -17 468 0 582 112 472 113 580 466 0 583 +15 582
 566 0 112 584 585 17 112 0 582 145 468 110 586 469 0 587 +17 472 0 582 468 588
 167 578 470 0 580 +17 583 0 589 357 294 113 288 286 0 586 -15 589 1441 0 291 59
0 0 17 357 0 589 291 583 74 115 355 0 0 +17 294 0 589 583 291 83 591 292 0 288 +
17 288 0 592 593 586 83 583 286 0 0 +17 586 0 592 288 587 113 112 469 0 0 -15 59
2 1445 0 288 594 0 17 587 0 592 586 593 110 282 280 0 595 -16 469 999 0 ?112 466
 470 464 466 466 1 17 593 0 592 587 288 80 85 363 0 596 -17 282 0 597 133 595 80
 587 280 0 0 +17 595 0 597 282 401 110 145 381 0 0 -15 597 1447 0 133 598 0 17 4
01 0 597 595 133 143 599 399 0 0 +17 145 0 582 465 112 143 595 381 0 600 +17 465
 0 582 118 145 140 600 463 0 601 +17 600 0 602 599 142 143 465 463 0 401 -15 602
 985 0 227 603 0 17 599 0 602 139 600 131 401 399 0 0 -17 142 0 602 600 127 140
 394 392 0 465 -17 127 0 602 142 514 125 604 391 0 605 +17 394 0 606 275 601 125
 142 392 0 0 +15 606 1282 0 394 607 0 17 275 0 606 608 394 59 605 273 0 269 +17
 601 0 606 394 608 140 118 383 0 0 -17 608 0 606 601 275 116 269 267 0 609 -17 1
18 0 582 121 465 116 601 383 0 608 +17 121 0 582 588 118 119 609 447 0 475 -17 5
88 0 582 472 121 171 475 473 0 0 -17 609 0 610 269 611 116 121 447 0 0 +16 447 9
93 0 ?609 473 444 471 473 473 1 17 475 0 569 94 179 119 588 473 0 611 +17 179 0
 569 475 570 171 419 409 0 578 -17 611 0 610 609 612 119 263 261 0 372 -15 610 1
286 0 269 613 0 17 612 0 610 611 269 62 61 343 0 523 -17 263 0 614 266 372 62 61
1 261 0 0 +17 372 0 614 263 539 119 94 370 0 0 +15 614 1290 0 263 615 0 17 539 0
 614 372 266 92 260 258 0 538 -17 266 0 614 539 263 71 523 264 0 260 +17 523 0 5
20 524 521 62 266 264 0 263 -17 524 0 520 272 523 65 64 239 0 0 -17 64 0 616 61
 67 62 524 239 0 612 +15 616 1137 0 61 617 618 17 61 0 616 340 64 59 612 343 0 6
19 +17 67 0 616 64 340 65 58 341 0 525 +17 340 0 616 67 61 56 619 338 0 0 +17 58
 0 620 278 525 56 67 341 0 621 -17 525 0 620 58 528 65 272 270 0 524 -15 620 128
0 0 278 622 0 17 528 0 620 525 278 208 213 240 0 272 -17 278 0 620 528 58 211 62
1 276 0 0 +17 213 0 526 203 210 211 528 240 0 623 +15 526 1760 0 203 624 0 17 20
3 0 526 527 213 201 623 389 0 516 +17 623 0 625 621 604 211 203 389 0 278 -15 62
5 1278 0 605 626 0 17 621 0 625 619 623 56 278 276 0 340 -17 604 0 625 623 605 2
01 127 391 0 0 -17 605 0 625 604 619 125 275 273 0 394 -16 391 1663 0 ?127 389 3
92 388 389 389 1 17 619 0 625 605 621 59 340 338 0 275 -14 255 626 1277 627 ?622
 575 625 4 628 +0 0 622 575 19 81 255 1 627 2068 629 626 630 0 0 631 632 14 622
 1279 631 ?607 626 620 4 633 +0 0 607 626 19 14 575 822 634 ?626 562 635 4 636 -
0 0 626 562 19 51 628 1369 0 626 633 637 0 +.01 -1220731334946642e-33 .005 -1220
731334946642e-31 -1 0 .005 1 -1220731334946642e-31 0 13 19 78 0 0 0 0 0 0 8 12 1
4 12 1673 638 ?581 0 639 4 640 +641 641 581 0 19 81 1 638 2071 629 12 642 0 634
 643 644 14 581 1102 643 ?645 12 579 4 646 -645 645 645 12 19 15 639 226 0 647 1
2 648 51 640 245 0 641 649 650 0 -0 0 .01 0 0 -1 .005 -1 0 0 14 641 225 651 ?617
 652 653 4 640 +12 12 617 652 19 81 1 651 2073 629 641 654 0 643 655 656 14 617
 1 655 ?657 641 616 4 658 +659 659 657 641 19 14 652 211 660 ?641 661 662 4 663
 -0 0 641 661 19 15 653 1667 0 664 641 665 17 664 0 653 664 664 0 506 284 0 0 -1
5 665 224 0 443 641 0 17 443 0 665 443 443 0 666 435 0 0 +17 666 0 618 666 666 0
 443 435 0 0 -15 618 3 0 666 617 0 17 506 0 667 506 506 0 664 284 0 0 +15 667 17
59 0 506 624 526 14 624 1756 668 ?0 221 667 4 669 -0 0 0 221 19 81 1 668 2076 62
9 624 670 0 660 671 672 14 221 1751 671 ?624 673 674 4 675 +0 0 624 673 19 50 25
5 669 1767 0 624 675 676 0 +0 0 .005 0 0 1 1 0 0 50 675 1768 0 221 0 669 0 +0 0
 -.005 0 0 1 1 0 0 50 676 1766 0 673 669 677 0 +-3469446951953615e-33 -.015 -.00
5 -2312964634635745e-31 -1 0 1 -2312964634635745e-31 0 14 673 1739 678 ?221 598
 679 4 676 -0 0 221 598 19 50 677 834 0 562 676 636 0 +0 0 -.0075 0 0 1 1 0 0 14
 562 817 680 ?575 567 681 4 677 +0 0 575 567 19 50 636 833 0 575 677 682 0 +0 0
 .0075 0 0 1 1 0 0 50 682 832 0 567 636 683 0 +-.02 0 -.0075 -1 0 0 0 0 1 14 567
 805 684 ?562 584 565 4 682 +0 0 562 584 19 50 683 581 0 584 682 685 0 +0 0 .015
 0 0 1 1 0 0 14 584 563 686 ?567 687 582 4 683 +0 0 567 687 19 50 685 580 0 554
 683 658 0 +0 0 -.015 0 0 1 1 0 0 14 554 568 688 ?687 657 552 4 685 -0 0 687 657
 19 50 658 2 0 617 685 689 0 +0 0 .01 0 0 1 1 0 0 50 689 177 0 657 658 690 0 +0
 0 -.01 0 0 1 1 0 0 14 657 110 691 ?554 617 692 4 689 -693 693 554 617 19 51 690
 236 0 687 689 694 0 --.035 -.2 .01 0 0 -1 .005 -1 0 0 14 687 205 695 ?584 554 6
96 4 690 +697 697 584 554 19 50 694 237 0 603 690 663 0 +.015 -1831097002419965e
-33 .01 -1 1220731334946642e-31 0 -1220731334946642e-31 -1 0 14 603 987 698 ?560
 571 602 4 694 -0 0 560 571 19 50 663 238 0 652 694 699 0 +0 -.27 .01 0 1 0 0 0
 1 50 699 239 0 661 663 646 0 +-.015 -1419319207617386e-33 .01 1 946212805078259
e-31 0 -946212805078259e-31 1 0 14 661 213 700 ?652 577 33 4 699 -0 0 652 577 19
 50 646 240 0 581 699 701 0 +0 -.215 .01 0 1 0 0 0 1 51 701 241 0 577 646 702 0
 --.035 -.2 .01 0 0 -1 .015 -1 0 0 14 577 217 703 ?661 531 576 4 701 -560 560 66
1 531 19 50 702 242 0 549 701 649 0 +0 -.185 .01 0 1 0 0 0 1 14 549 1057 704 ?57
1 645 547 4 702 +571 571 571 645 19 50 649 243 0 531 702 640 0 +-.015 -196914556
7325025e-33 .01 1 1312763711550016e-31 0 -1312763711550016e-31 1 0 14 531 221 70
5 ?577 693 529 4 649 -0 0 577 693 19 81 1 705 2089 629 531 706 0 704 707 708 14
 693 347 707 ?531 659 709 4 689 -657 657 531 659 19 81 1 707 2090 629 693 710 0
 705 711 712 14 659 370 711 ?693 697 713 4 658 +617 617 693 697 19 15 709 345 0
 46 693 0 17 46 0 709 52 49 44 306 336 0 714 +17 52 0 709 715 46 50 714 332 0 43
4 +17 49 0 709 46 715 47 716 334 0 306 +17 306 0 305 717 304 47 46 336 0 718 -17
 714 0 719 313 720 44 52 332 0 309 -15 719 1427 0 720 14 0 17 313 0 719 721 714
 128 309 16 0 312 -17 720 0 719 714 721 50 136 324 0 0 -17 721 0 719 720 313 134
 130 395 0 0 -17 136 0 662 722 434 134 720 324 0 430 +15 662 210 0 434 652 0 17
 722 0 662 88 136 137 430 428 0 723 -17 434 0 662 136 55 50 715 432 0 720 +17 43
0 0 602 130 139 134 722 428 0 721 +17 130 0 602 157 430 128 721 395 0 313 +17 13
9 0 602 430 599 137 724 402 0 722 +17 724 0 725 596 723 131 139 402 0 599 -15 72
5 1443 0 723 726 0 17 596 0 725 727 724 80 133 283 0 282 -17 723 0 725 724 727 1
37 88 328 0 0 -17 727 0 725 723 596 86 82 361 0 0 -17 88 0 662 728 722 86 723 32
8 0 441 +17 728 0 662 43 88 89 441 431 0 729 -17 441 0 713 82 91 86 728 431 0 72
7 +15 713 4 0 441 659 0 17 82 0 713 85 441 80 727 361 0 593 +17 91 0 713 441 85
 89 730 365 0 728 +17 85 0 713 91 82 83 593 363 0 730 +17 730 0 731 591 729 83 9
1 365 0 294 -15 731 1437 0 729 732 0 17 591 0 731 733 730 32 294 292 0 291 -17 7
29 0 731 730 733 89 43 330 0 0 -17 733 0 731 729 591 41 34 322 0 0 -17 43 0 662
 427 728 41 729 330 0 734 +17 427 0 662 55 43 37 734 425 0 735 +17 734 0 33 34 2
0 41 427 425 0 733 -15 33 212 0 31 661 0 17 34 0 33 31 734 32 733 322 0 35 +17 2
0 0 33 734 31 37 36 9 0 427 +17 36 0 736 718 735 24 20 9 0 302 -15 736 1431 0 73
5 737 0 17 718 0 736 716 36 47 302 301 0 300 -17 735 0 736 36 716 37 55 326 0 0
 -17 302 0 738 739 300 24 718 301 0 297 +15 738 1435 0 300 740 0 17 739 0 738 36
0 302 77 297 295 0 741 -17 300 0 738 302 360 47 717 298 0 0 +17 297 0 742 35 741
 24 739 295 0 0 +15 742 1439 0 297 743 0 17 35 0 742 744 297 32 31 21 0 591 -17
 741 0 742 297 744 77 572 480 0 0 -17 744 0 742 741 35 74 291 289 0 357 -17 572
 0 565 166 478 74 741 480 0 744 +16 480 1086 0 ?572 476 481 474 476 481 1 16 481
 1089 0 ?166 480 496 474 480 476 1 17 478 0 565 572 195 77 564 476 0 739 +17 564
 0 745 500 79 193 478 476 0 0 -15 745 1092 0 79 645 0 17 500 0 745 170 564 196 5
63 498 0 558 +17 79 0 745 564 453 77 360 358 0 478 -17 453 0 745 79 170 149 556
 451 0 717 +17 360 0 738 300 739 149 79 358 0 0 +17 170 0 745 453 500 168 558 42
4 0 457 +17 717 0 305 307 306 149 300 298 0 360 -15 305 1433 0 304 746 0 17 307
 0 305 304 717 146 151 454 0 0 +17 151 0 552 556 148 149 307 454 0 453 -16 454 9
09 0 ?307 451 455 449 451 451 1 17 148 0 552 151 747 146 748 407 0 308 +17 747 0
 552 148 406 155 450 448 0 748 -17 748 0 311 312 308 155 148 407 0 0 -17 308 0 3
11 748 309 146 304 303 0 307 -15 311 1429 0 312 749 0 17 312 0 311 309 748 128 1
57 397 0 0 +14 749 1428 750 ?737 14 311 4 15 +0 0 737 14 19 81 1 750 2092 629 74
9 751 0 711 752 753 14 737 1430 752 ?746 749 736 4 754 +0 0 746 749 19 14 14 142
6 755 ?749 756 719 4 5 +0 0 749 756 19 54 255 15 1509 0 749 754 5 0 +.01 -.22 -.
015 -1 1220731334946642e-31 0 .01 .005 -1220731334946642e-31 -1 0 51 754 1510 0
 737 757 15 0 +-.01 -946212805078258e-33 -.005 946212805078259e-31 -1 0 .005 1 9
46212805078259e-31 0 51 757 1511 0 746 758 754 0 +0 -.22 -.015 1 0 0 .005 0 0 -1
 14 746 1432 759 ?740 737 305 4 757 -0 0 740 737 19 54 758 1512 0 740 760 757 0
 +-.01 -.22 -.005 0 1 0 .01 .005 0 0 1 14 740 1434 761 ?732 746 738 4 758 -0 0 7
32 746 19 51 760 1513 0 732 762 758 0 +-.01 -946212805078258e-33 .005 -946212805
078259e-31 1 0 .005 -1 -946212805078259e-31 0 14 732 1436 763 ?743 740 731 4 760
 +0 0 743 740 19 51 762 1514 0 743 764 760 0 +-.02 -.22 .01 0 0 1 .005 1 0 0 14
 743 1438 765 ?590 732 742 4 762 -0 0 590 732 19 54 764 1515 0 590 766 762 0 +-.
01 -.22 .005 0 1 0 .01 .005 0 0 1 14 590 1440 767 ?726 743 589 4 764 -0 0 726 74
3 19 51 766 1516 0 726 768 764 0 +.01 -1220731334946642e-33 .005 -12207313349466
42e-31 -1 0 .005 1 -1220731334946642e-31 0 14 726 1442 769 ?594 590 725 4 766 +0
 0 594 590 19 51 768 1517 0 594 637 766 0 +0 -.22 .015 -1 0 0 .005 0 0 1 14 594
 1444 770 ?598 726 592 4 768 -0 0 598 726 19 54 637 1518 0 598 628 768 0 +.01 -.
22 .015 -1 1220731334946642e-31 0 .01 .005 -1220731334946642e-31 -1 0 14 598 144
6 771 ?673 594 597 4 637 +0 0 673 594 19 81 1 771 2102 629 598 772 0 770 773 774
 80 255 1 629 775 776 9000 1 1 1 1 1 1 1 1 0 FFFFTFTFFFFFFF1 81 1 772 1925 777 5
98 0 771 778 779 780 81 1 770 2101 629 594 778 0 769 771 781 81 1 773 2103 629 7
56 782 0 771 783 784 82 255 1 774 -872415027 14 756 1303 773 ?14 785 316 4 650 +
0 0 14 785 19 81 1 782 1914 777 756 0 773 786 787 788 81 1 783 2104 629 785 786
 0 773 789 790 82 1 784 -888078131 14 785 1301 783 ?756 242 791 4 792 -0 0 756 2
42 19 81 1 786 1913 777 785 0 783 793 782 794 81 1 789 2105 629 242 793 0 783 79
5 796 82 1 790 -886832947 14 242 1299 789 ?785 545 224 4 797 +0 0 785 545 19 81
 1 793 1912 777 242 0 789 798 786 799 81 1 795 2106 629 545 798 0 789 800 801 82
 1 796 -885718833 14 545 1297 795 ?242 233 543 4 802 -0 0 242 233 19 81 1 798 19
11 777 545 0 795 803 793 804 81 1 800 2107 629 233 803 0 795 805 806 82 1 801 -8
84604723 14 233 1295 800 ?545 537 230 4 807 +0 0 545 537 19 81 1 803 1910 777 23
3 0 800 808 798 809 81 1 805 2108 629 537 808 0 800 810 811 82 1 806 -883490609
 14 537 1293 805 ?233 542 534 4 812 -0 0 233 542 19 81 1 808 1909 777 537 0 805
 813 803 814 81 1 810 2109 629 542 813 0 805 815 816 82 1 811 -882310963 14 542
 1291 810 ?537 615 540 4 817 +0 0 537 615 19 81 1 813 1908 777 542 0 810 818 808
 819 81 1 815 2110 629 615 818 0 810 820 821 82 1 816 -881196849 14 615 1289 815
 ?542 613 614 4 822 -0 0 542 613 19 81 1 818 1907 777 615 0 815 823 813 824 81 1
 820 2111 629 613 823 0 815 825 826 82 1 821 -880803635 14 613 1285 820 ?615 522
 610 4 827 -0 0 615 522 19 81 1 823 1906 777 613 0 820 828 818 829 81 1 825 2112
 629 522 828 0 820 830 831 82 1 826 -879361843 14 522 1283 825 ?613 607 520 4 83
2 +0 0 613 607 19 81 1 828 1905 777 522 0 825 833 823 834 81 1 830 2113 629 607
 833 0 825 835 836 82 1 831 -878182193 14 607 1281 830 ?522 622 606 4 837 +0 0 5
22 622 19 81 1 833 1904 777 607 0 830 838 828 839 81 1 835 2114 629 645 840 0 83
0 841 842 82 1 836 -877068083 14 645 1094 835 ?549 581 745 4 646 -581 581 549 58
1 19 81 1 840 1881 777 645 0 835 843 844 845 81 1 841 2115 629 571 846 0 835 847
 848 82 1 842 -840957747 14 571 1049 841 ?603 549 569 4 702 +549 549 603 549 19
 81 1 846 1883 777 571 0 841 844 849 850 81 1 847 2116 629 697 851 0 841 852 853
 82 1 848 -845086515 14 697 695 847 ?659 560 854 4 690 +687 687 659 560 19 81 1
 851 1886 777 697 0 847 855 856 857 81 1 852 2117 629 560 855 0 847 0 858 82 1 8
53 -902758196 14 560 735 852 ?697 603 557 4 701 -577 577 697 603 19 81 1 855 188
5 777 560 0 852 849 851 859 82 1 858 -897908532 80 1 777 0 860 8001 0 0 0 0 3 5
 0 0 0 FFFFTFTFFFFFFF2 81 1 849 1884 777 603 0 698 846 855 861 83 255 3 859 .866
666666666667 .909803921568627 1 81 1 698 2085 629 603 849 0 695 700 862 83 3 861
 .866666666666667 .909803921568627 1 81 1 695 2084 629 687 863 0 691 698 864 81
 1 700 2086 629 661 865 0 698 703 866 82 1 862 -850853681 81 1 865 1891 777 661
 0 700 867 868 869 81 1 703 2087 629 577 867 0 700 704 870 82 1 866 -298385203 8
1 1 867 1890 777 577 0 703 706 865 871 81 1 704 2088 629 549 844 0 703 705 872 8
2 1 870 -297860916 81 1 844 1882 777 549 0 704 840 846 873 82 1 872 -844431155 8
3 3 873 .866666666666667 .909803921568627 1 81 1 706 1889 777 531 0 705 710 867
 874 83 3 871 .866666666666667 .909803921568627 1 81 1 710 1888 777 693 0 707 85
6 706 875 83 3 874 .866666666666667 .909803921568627 1 81 1 856 1887 777 659 0 7
11 851 710 876 83 3 875 .866666666666667 .909803921568627 1 81 1 711 2091 629 65
9 856 0 707 750 877 83 3 876 .866666666666667 .909803921568627 1 82 1 877 724830
21 81 1 868 1892 777 652 0 660 865 654 878 83 3 869 .866666666666667 .9098039215
68627 1 81 1 660 2075 629 652 868 0 655 668 879 81 1 654 1893 777 641 0 651 868
 880 881 83 3 878 .866666666666667 .909803921568627 1 81 1 880 1894 777 617 0 65
5 654 882 883 83 3 881 .866666666666667 .909803921568627 1 81 1 655 2074 629 617
 880 0 651 660 884 81 1 882 1895 777 657 0 691 880 885 886 83 3 883 .86666666666
6667 .909803921568627 1 81 1 691 2083 629 657 882 0 688 695 887 81 1 885 1896 77
7 554 0 688 882 863 888 83 3 886 .866666666666667 .909803921568627 1 81 1 688 20
82 629 554 885 0 686 691 889 81 1 863 1897 777 687 0 695 885 890 891 83 3 888 .8
66666666666667 .909803921568627 1 81 1 890 1898 777 584 0 686 863 892 893 83 3 8
91 .866666666666667 .909803921568627 1 81 1 686 2081 629 584 890 0 684 688 894 8
1 1 892 1899 777 567 0 684 890 895 896 83 3 893 .866666666666667 .90980392156862
7 1 81 1 684 2080 629 567 892 0 680 686 897 81 1 895 1900 777 562 0 680 892 898
 899 83 3 896 .866666666666667 .909803921568627 1 81 1 680 2079 629 562 895 0 67
8 684 900 81 1 898 1901 777 575 0 634 895 630 901 83 3 899 .866666666666667 .909
803921568627 1 81 1 634 2070 629 575 898 0 631 638 902 81 1 630 1902 777 626 0 6
27 898 838 903 83 3 901 .866666666666667 .909803921568627 1 81 1 838 1903 777 62
2 0 631 630 833 904 83 3 903 .866666666666667 .909803921568627 1 81 1 631 2069 6
29 622 838 0 627 634 905 83 3 904 .866666666666667 .909803921568627 1 82 1 905 -
875953969 82 1 902 -910556980 81 1 678 2078 629 673 779 0 671 680 906 82 1 900 -
914489140 81 1 779 1926 777 673 0 678 772 907 908 81 1 671 2077 629 221 907 0 66
8 678 909 82 1 906 -1724645169 81 1 907 1927 777 221 0 671 779 670 910 82 1 909
 -1731985201 81 1 670 1928 777 624 0 668 907 0 911 83 3 910 .866666666666667 .90
9803921568627 1 83 3 911 .866666666666667 .909803921568627 1 83 3 908 .866666666
666667 .909803921568627 1 82 1 897 -907149107 82 1 894 43253965 82 1 889 4823470
1 82 1 887 -307429171 82 1 884 -315948851 82 1 879 -298647347 82 1 864 -29917163
6 79 255 15 860 SDL/TYSA_COLOUR83 3 857 .866666666666667 .909803921568627 1 15 8
54 537 0 912 697 913 17 912 0 854 912 912 0 446 444 0 0 -15 913 692 0 412 697 0
 17 412 0 913 412 412 0 914 410 0 0 +17 914 0 681 914 914 0 412 410 0 0 -15 681
 820 0 914 562 561 17 446 0 555 446 446 0 912 444 0 0 +15 555 572 0 446 554 0 83
 3 850 .866666666666667 .909803921568627 1 81 1 843 1880 777 581 0 643 642 840 9
15 83 3 845 .866666666666667 .909803921568627 1 81 1 643 2072 629 581 843 0 638
 651 916 81 1 642 1879 777 12 0 638 0 843 917 83 3 915 .866666666666667 .9098039
21568627 1 83 3 917 .866666666666667 .909803921568627 1 82 1 916 -840302387 83 3
 839 .866666666666667 .909803921568627 1 54 837 1371 0 607 832 633 0 +.01 -.18 .
015 -1 1220731334946642e-31 0 .01 .005 -1220731334946642e-31 -1 0 51 832 1372 0
 522 827 837 0 +-.01 -1312763711550016e-33 .005 -1312763711550016e-31 1 0 .005 -
1 -1312763711550016e-31 0 54 633 1370 0 622 837 628 0 +0 0 .005 0 0 1 .01 .005 1
 0 0 51 827 1373 0 613 822 832 0 +0 -.18 .015 1 0 0 .005 0 0 -1 54 822 1374 0 61
5 817 827 0 +-.01 -.18 .005 0 1 0 .01 .005 0 0 1 51 817 1375 0 542 812 822 0 +-.
01 -1312763711550016e-33 -.005 1312763711550016e-31 -1 0 .005 1 1312763711550016
e-31 0 51 812 1376 0 537 807 817 0 +-.02 -.18 .01 0 0 -1 .005 -1 0 0 54 807 1377
 0 233 802 812 0 +0 0 -.005 0 0 1 .01 .005 1 0 0 54 802 1378 0 545 797 807 0 +-.
01 -.18 -.005 0 1 0 .01 .005 0 0 1 51 797 1379 0 242 792 802 0 +.01 -12207313349
46642e-33 -.005 1220731334946642e-31 1 0 .005 -1 1220731334946642e-31 0 51 792 1
380 0 785 650 797 0 +0 -.18 -.015 -1 0 0 .005 0 0 1 54 650 1381 0 756 640 792 0
 +.01 -.18 -.015 -1 1220731334946642e-31 0 .01 .005 -1220731334946642e-31 -1 0 8
3 3 834 .866666666666667 .909803921568627 1 83 3 829 .866666666666667 .909803921
568627 1 83 3 824 .866666666666667 .909803921568627 1 83 3 819 .866666666666667
 .909803921568627 1 83 3 814 .866666666666667 .909803921568627 1 83 3 809 .86666
6666666667 .909803921568627 1 83 3 804 .866666666666667 .909803921568627 1 83 3
 799 .866666666666667 .909803921568627 1 83 3 794 .866666666666667 .909803921568
627 1 15 791 1302 0 109 785 0 17 109 0 791 918 546 107 544 246 0 256 +17 918 0 7
91 319 109 98 375 373 0 243 -17 546 0 791 109 319 161 160 413 0 0 -17 319 0 791
 546 918 158 314 310 0 318 -16 413 897 0 ?160 458 410 456 458 458 1 17 318 0 316
 314 154 158 406 404 0 0 -15 316 1304 0 318 756 0 17 154 0 316 318 317 152 124 3
85 0 406 +17 406 0 552 747 160 152 318 404 0 450 +17 450 0 602 124 157 152 747 4
48 0 0 +17 124 0 602 227 450 122 154 385 0 225 -17 157 0 602 450 130 155 312 397
 0 747 -17 227 0 602 514 124 10 225 387 0 0 +17 225 0 224 243 218 122 227 387 0
 317 -17 243 0 224 236 225 98 317 251 0 314 -17 317 0 316 154 314 122 243 251 0
 0 +17 514 0 602 127 227 201 30 510 0 604 +17 30 0 679 28 516 10 514 510 0 218 -
15 679 1742 0 516 673 0 17 28 0 679 207 30 190 23 29 0 530 -17 516 0 679 30 207
 201 527 228 0 514 +17 207 0 679 516 28 205 530 511 0 527 +17 527 0 526 210 203
 205 516 228 0 519 -17 375 0 692 106 100 107 918 373 0 0 +15 692 1017 0 100 657
 919 17 106 0 692 103 375 104 541 379 0 237 +17 100 0 692 375 103 98 236 244 0 9
18 +17 103 0 692 100 106 101 234 377 0 231 +17 234 0 230 232 231 104 103 377 0 0
 -17 237 0 540 541 223 104 232 238 0 234 -17 223 0 540 237 532 215 27 347 0 232
 -17 27 0 25 23 217 190 223 347 0 28 +15 919 111 0 438 657 0 17 438 0 919 438 43
8 0 647 436 0 0 +17 647 0 639 647 647 0 438 436 0 0 -81 1 787 1915 777 14 0 755
 782 751 920 83 3 788 .866666666666667 .909803921568627 1 81 1 755 2094 629 14 7
87 0 752 759 921 81 1 751 1916 777 749 0 750 787 922 923 83 3 920 .8666666666666
67 .909803921568627 1 81 1 922 1917 777 737 0 752 751 924 925 83 3 923 .86666666
6666667 .909803921568627 1 81 1 752 2093 629 737 922 0 750 755 926 81 1 924 1918
 777 746 0 759 922 927 928 83 3 925 .866666666666667 .909803921568627 1 81 1 759
 2095 629 746 924 0 755 761 929 81 1 927 1919 777 740 0 761 924 930 931 83 3 928
 .866666666666667 .909803921568627 1 81 1 761 2096 629 740 927 0 759 763 932 81
 1 930 1920 777 732 0 763 927 933 934 83 3 931 .866666666666667 .909803921568627
 1 81 1 763 2097 629 732 930 0 761 765 935 81 1 933 1921 777 743 0 765 930 936 9
37 83 3 934 .866666666666667 .909803921568627 1 81 1 765 2098 629 743 933 0 763
 767 938 81 1 936 1922 777 590 0 767 933 939 940 83 3 937 .866666666666667 .9098
03921568627 1 81 1 767 2099 629 590 936 0 765 769 941 81 1 939 1923 777 726 0 76
9 936 778 942 83 3 940 .866666666666667 .909803921568627 1 81 1 769 2100 629 726
 939 0 767 770 943 81 1 778 1924 777 594 0 770 939 772 944 83 3 942 .86666666666
6667 .909803921568627 1 83 3 944 .866666666666667 .909803921568627 1 82 1 943 -8
70121267 82 1 941 -869072691 82 1 938 -867958579 82 1 935 -866778931 82 1 932 -8
65730355 82 1 929 -864616243 82 1 926 -863436595 82 1 921 -860815155 82 1 781 -8
71235379 83 3 780 .866666666666667 .909803921568627 1 79 14 776 SWEntUnchanged82
 1 753 -862388019 16 424 702 0 ?170 421 425 418 421 421 1 17 291 0 589 294 357 3
2 744 289 0 0 +17 716 0 736 735 718 53 49 334 0 0 -17 55 0 662 434 427 53 735 32
6 0 715 +17 715 0 709 49 52 53 434 432 0 716 -17 133 0 597 401 282 131 596 283 0
 724 +82 1 712 59703501 82 1 708 -297402161 15 696 686 0 945 687 946 17 945 0 69
6 945 945 0 416 414 0 0 -15 946 562 0 462 687 0 17 462 0 946 462 462 0 947 439 0
 0 +17 947 0 585 947 947 0 462 439 0 0 -15 585 567 0 947 584 0 17 416 0 635 416
 416 0 945 414 0 0 +15 635 825 0 416 575 573 15 674 1754 0 948 221 25 17 948 0 6
74 948 948 0 509 507 0 0 -17 509 0 648 509 509 0 948 507 0 0 +15 648 1671 0 509
 12 0 82 1 672 -1728053041 82 1 656 -296812337 82 1 644 -1718419249 82 1 632 -87
4381105 17 269 0 610 612 609 59 608 267 0 0 +17 578 0 576 419 177 171 472 470 0
 588 -17 76 0 579 115 574 74 166 481 0 572 -16 349 1657 0 ?70 347 350 346 347 34
7 1 19 13 247 0 1 0 8 4 S74 4 CI16 index_map_offset0 0 1 dCCZ20 11 2 0 0 852 670
 0 0 0 0 0 0 0 0 0 0 0 0 0 0 0 0 0 0 1 0 
